<svg width="64" height="64" xmlns="http://www.w3.org/2000/svg" xmlns:xlink="http://www.w3.org/1999/xlink">
  <defs/>
  <g>
    <path stroke="none" fill="#FFFFFF" d="M29 32 L29 28 32 28 Q32.85 28 33.4 28.55 34 29.15 34 30 34 30.85 33.4 31.4 32.85 32 32.05 32 L29 32 M32 35 L33 34.9 33 35 34 38 37 38 35.5 33.5 Q37 32.05 37 30 37 27.95 35.5 26.45 34.05 25 32 25 L26 25 26 38 29 38 29 35 32 35 M48 16 Q56 16 56 24 L56 40 Q56 48 48 48 L24 48 Q17.4 48 12.75 43.3 8 38.6 8 32 8 25.4 12.75 20.7 17.4 16 24 16 L48 16"/>
  </g>
</svg>