<svg width="64" height="64" xmlns="http://www.w3.org/2000/svg" xmlns:xlink="http://www.w3.org/1999/xlink">
  <defs/>
  <g>
    <path stroke="none" fill="#FFFFFF" d="M48.25 13 L31.35 13 Q23.1 13.2 17.2 19.15 11.3 25 11 33.1 L11 46 Q11 51 16 51 L48 51 Q53 51 53 46 L53 18 Q53 13.1 48.25 13 M48.3 10 Q56 10.15 56 18 L56 46 Q56 54 48 54 L16 54 Q8 54 8 46 L8 32.95 Q8.35 23.7 15.05 17 21.85 10.2 31.35 10 L48.3 10 M37 38 L40.05 38 Q40.85 38 41.4 37.4 42 36.85 42 36 42 35.15 41.4 34.55 40.85 34 40 34 L37 34 37 38 M40 41 L37 41 37 44 34 44 34 31 40 31 Q42.05 31 43.5 32.45 45 33.95 45 36 45 38.05 43.5 39.5 L45 44 42 44 41 41 41 40.9 40 41 M18 30 L18 27 31 27 31 31 22 41 31 41 31 44 18 44 18 40 27 30 18 30"/>
  </g>
</svg>