<svg width="64" height="64" xmlns="http://www.w3.org/2000/svg" xmlns:xlink="http://www.w3.org/1999/xlink">
  <defs/>
  <g>
    <path stroke="none" fill="#FFFFFF" d="M40 19 L16 19 Q11 19 11 24 L11 40 Q11 45 16 45 L40 45 Q45.35 45 49.15 41.2 53 37.35 53 32 53 26.65 49.15 22.85 L49.15 22.8 Q45.35 19 40 19 M16 16 L40 16 Q46.6 16 51.25 20.7 56 25.4 56 32 56 38.6 51.25 43.3 46.6 48 40 48 L16 48 Q8 48 8 40 L8 24 Q8 16 16 16"/>
    <path stroke="none" fill="#FFFFFF" d="M30 35 L36 35 36 38 27 38 27 25 30 25 30 35"/>
  </g>
</svg>