<svg width="64" height="64" xmlns="http://www.w3.org/2000/svg" xmlns:xlink="http://www.w3.org/1999/xlink">
  <defs/>
  <g>
    <path stroke="none" fill="#FFFFFF" d="M32.6 13 L15.7 13 Q11 13.15 11 18 L11 46 Q11 51 16 51 L48 51 Q53 51 53 46 L53 32.95 Q52.65 24.95 46.85 19.15 40.9 13.2 32.6 13 M15.7 10 L32.65 10 Q42.15 10.2 48.95 17 55.65 23.7 56 32.95 L56 46 Q56 54 48 54 L16 54 Q8 54 8 46 L8 18 Q8 10.15 15.7 10 M38 41 L44 41 44 44 35 44 35 31 38 31 38 41 M19 30 L19 27 32 27 32 31 23 41 32 41 32 44 19 44 19 40 28 30 19 30"/>
  </g>
</svg>