<svg width="64" height="64" xmlns="http://www.w3.org/2000/svg" xmlns:xlink="http://www.w3.org/1999/xlink">
  <defs/>
  <g>
    <path stroke="none" fill="#FFFFFF" d="M48 16 Q56 16 56 24 L56 40 Q56 48 48 48 L24 48 Q17.4 48 12.75 43.3 8 38.6 8 32 8 25.4 12.75 20.7 17.4 16 24 16 L48 16 M48 19 L24 19 Q18.65 19 14.9 22.8 L14.85 22.85 Q11 26.65 11 32 11 37.35 14.85 41.2 L14.9 41.2 Q18.65 45 24 45 L48 45 Q53 45 53 40 L53 24 Q53 19 48 19 M32 35 L29 35 29 38 26 38 26 25 32 25 Q34.05 25 35.5 26.45 37 27.95 37 30 37 32.05 35.5 33.5 L37 38 34 38 33 35 33 34.9 32 35 M29 32 L32.05 32 Q32.85 32 33.4 31.4 34 30.85 34 30 34 29.15 33.4 28.55 32.85 28 32 28 L29 28 29 32"/>
  </g>
</svg>