<svg width="64" height="64" xmlns="http://www.w3.org/2000/svg" xmlns:xlink="http://www.w3.org/1999/xlink">
  <defs/>
  <g>
    <path stroke="none" fill="#FFFFFF" d="M37 38 L37 34 40 34 Q40.85 34 41.4 34.55 42 35.15 42 36 42 36.85 41.4 37.4 40.85 38 40.05 38 L37 38 M40 41 L41 40.9 41 41 42 44 45 44 43.5 39.5 Q45 38.05 45 36 45 33.95 43.5 32.45 42.05 31 40 31 L34 31 34 44 37 44 37 41 40 41 M48.3 10 Q56 10.15 56 18 L56 46 Q56 54 48 54 L16 54 Q8 54 8 46 L8 32.95 Q8.35 23.7 15.05 17 21.85 10.2 31.35 10 L48.3 10 M18 30 L27 30 18 40 18 44 31 44 31 41 22 41 31 31 31 27 18 27 18 30"/>
  </g>
</svg>